<?xml version="1.0" encoding="utf-8"?>
<!-- Generator: Adobe Illustrator 19.0.0, SVG Export Plug-In . SVG Version: 6.00 Build 0)  -->
<svg version="1.1" id="Layer_1" xmlns="http://www.w3.org/2000/svg" xmlns:xlink="http://www.w3.org/1999/xlink" x="0px" y="0px"
	 viewBox="0 0 200 200" style="enable-background:new 0 0 200 200;" xml:space="preserve">
<style type="text/css">
	.st0{fill:#EC7D30;}
	.st1{fill:#FFFFFF;}
	.st2{fill:#51525E;}
</style>
<g id="XMLID_7_">
	<circle id="circle" class="st0" cx="150.5" cy="111.7" r="44.1"/>
	<path id="XMLID_6_" class="st1" d="M168.3,131.4h-34.5c-1.5,0-2.7-1.2-2.7-2.7v-22c0-1.5,1.2-2.7,2.7-2.7h34.5
		c1.5,0,2.7,1.2,2.7,2.7v22C171,130.2,169.8,131.4,168.3,131.4z"/>
	<path id="XMLID_13_" class="st1" d="M165.6,119h-29V98.9c0-8,6.5-14.5,14.5-14.5s14.5,6.5,14.5,14.5V119z M143.3,112.2h15.5V98.9
		c0-4.3-3.5-7.8-7.8-7.8s-7.8,3.5-7.8,7.8V112.2z"/>
	<circle id="XMLID_3_" class="st2" cx="92.3" cy="40.6" r="38.2"/>
	<path id="XMLID_2_" class="st2" d="M169.8,157.4c-6.1,2.6-12.6,3.9-19.3,3.9c-1.5,0-3.1-0.1-4.6-0.2v30.5
		c11.4-2.6,22.6-6.1,33.3-10.4v-29.1C176.3,154.2,173.1,156,169.8,157.4z"/>
	<path id="XMLID_1_" class="st2" d="M131.2,157.4c-5.9-2.5-11.2-6.1-15.8-10.6c-4.6-4.6-8.1-9.9-10.6-15.8
		c-2.6-6.1-3.9-12.6-3.9-19.3c0-6.7,1.3-13.2,3.9-19.3c1-2.3,2.1-4.4,3.3-6.5c-5.1,1.8-10.4,2.7-15.8,2.7c-6.5,0-12.8-1.3-18.7-3.8
		c-4-1.7-7.7-3.9-11.1-6.5c-32.8,8.1-57.1,37.6-57.1,72.9v30c10.7,4.2,21.9,7.7,33.3,10.4V147l5.5,45.8c15.9,3.4,31.2,4.9,48.1,4.9
		s32.1-1.5,48-4.9l3.9-31.9C139.7,160.4,135.4,159.2,131.2,157.4z"/>
</g>
</svg>
